<svg xmlns="http://www.w3.org/2000/svg" viewBox="0 0 640 400">
  <rect width="640" height="400" fill="#EFF1F2"/>
  <circle cx="228.7" cy="270.3" r="7.5" fill="#0C6E63" opacity="0.9"/><circle cx="242.3" cy="243.6" r="7.5" fill="#0C6E63" opacity="0.9"/><circle cx="263.6" cy="222.3" r="7.5" fill="#0C6E63" opacity="0.9"/><circle cx="290.3" cy="208.7" r="7.5" fill="#0C6E63" opacity="0.9"/><circle cx="320.0" cy="204.0" r="7.5" fill="#9AA4A8" opacity="0.75"/><circle cx="349.7" cy="208.7" r="7.5" fill="#3B4C73" opacity="0.85"/><circle cx="376.4" cy="222.3" r="7.5" fill="#3B4C73" opacity="0.85"/><circle cx="397.7" cy="243.6" r="7.5" fill="#3B4C73" opacity="0.85"/><circle cx="411.3" cy="270.3" r="7.5" fill="#3B4C73" opacity="0.85"/><circle cx="200.2" cy="261.1" r="7.5" fill="#0C6E63" opacity="0.9"/><circle cx="210.9" cy="237.0" r="7.5" fill="#0C6E63" opacity="0.9"/><circle cx="226.4" cy="215.7" r="7.5" fill="#0C6E63" opacity="0.9"/><circle cx="245.9" cy="198.1" r="7.5" fill="#0C6E63" opacity="0.9"/><circle cx="268.8" cy="184.9" r="7.5" fill="#0C6E63" opacity="0.9"/><circle cx="293.8" cy="176.8" r="7.5" fill="#0C6E63" opacity="0.9"/><circle cx="320.0" cy="174.0" r="7.5" fill="#9AA4A8" opacity="0.75"/><circle cx="346.2" cy="176.8" r="7.5" fill="#3B4C73" opacity="0.85"/><circle cx="371.2" cy="184.9" r="7.5" fill="#3B4C73" opacity="0.85"/><circle cx="394.1" cy="198.1" r="7.5" fill="#3B4C73" opacity="0.85"/><circle cx="413.6" cy="215.7" r="7.5" fill="#3B4C73" opacity="0.85"/><circle cx="429.1" cy="237.0" r="7.5" fill="#3B4C73" opacity="0.85"/><circle cx="439.8" cy="261.1" r="7.5" fill="#3B4C73" opacity="0.85"/><circle cx="171.6" cy="251.8" r="7.5" fill="#0C6E63" opacity="0.9"/><circle cx="181.0" cy="229.2" r="7.5" fill="#0C6E63" opacity="0.9"/><circle cx="193.8" cy="208.3" r="7.5" fill="#0C6E63" opacity="0.9"/><circle cx="209.7" cy="189.7" r="7.5" fill="#0C6E63" opacity="0.9"/><circle cx="228.3" cy="173.8" r="7.5" fill="#0C6E63" opacity="0.9"/><circle cx="249.2" cy="161.0" r="7.5" fill="#0C6E63" opacity="0.9"/><circle cx="271.8" cy="151.6" r="7.5" fill="#0C6E63" opacity="0.9"/><circle cx="295.6" cy="145.9" r="7.5" fill="#9AA4A8" opacity="0.75"/><circle cx="320.0" cy="144.0" r="7.5" fill="#9AA4A8" opacity="0.75"/><circle cx="344.4" cy="145.9" r="7.5" fill="#3B4C73" opacity="0.85"/><circle cx="368.2" cy="151.6" r="7.5" fill="#3B4C73" opacity="0.85"/><circle cx="390.8" cy="161.0" r="7.5" fill="#3B4C73" opacity="0.85"/><circle cx="411.7" cy="173.8" r="7.5" fill="#3B4C73" opacity="0.85"/><circle cx="430.3" cy="189.7" r="7.5" fill="#3B4C73" opacity="0.85"/><circle cx="446.2" cy="208.3" r="7.5" fill="#3B4C73" opacity="0.85"/><circle cx="459.0" cy="229.2" r="7.5" fill="#3B4C73" opacity="0.85"/><circle cx="468.4" cy="251.8" r="7.5" fill="#3B4C73" opacity="0.85"/><circle cx="143.1" cy="242.5" r="7.5" fill="#0C6E63" opacity="0.9"/><circle cx="151.7" cy="220.8" r="7.5" fill="#0C6E63" opacity="0.9"/><circle cx="163.0" cy="200.3" r="7.5" fill="#0C6E63" opacity="0.9"/><circle cx="176.7" cy="181.4" r="7.5" fill="#0C6E63" opacity="0.9"/><circle cx="192.7" cy="164.4" r="7.5" fill="#0C6E63" opacity="0.9"/><circle cx="210.7" cy="149.5" r="7.5" fill="#0C6E63" opacity="0.9"/><circle cx="230.4" cy="137.0" r="7.5" fill="#0C6E63" opacity="0.9"/><circle cx="251.5" cy="127.1" r="7.5" fill="#0C6E63" opacity="0.9"/><circle cx="273.7" cy="119.8" r="7.5" fill="#0C6E63" opacity="0.9"/><circle cx="296.7" cy="115.5" r="7.5" fill="#9AA4A8" opacity="0.75"/><circle cx="320.0" cy="114.0" r="7.5" fill="#9AA4A8" opacity="0.75"/><circle cx="343.3" cy="115.5" r="7.5" fill="#3B4C73" opacity="0.85"/><circle cx="366.3" cy="119.8" r="7.5" fill="#3B4C73" opacity="0.85"/><circle cx="388.5" cy="127.1" r="7.5" fill="#3B4C73" opacity="0.85"/><circle cx="409.6" cy="137.0" r="7.5" fill="#3B4C73" opacity="0.85"/><circle cx="429.3" cy="149.5" r="7.5" fill="#3B4C73" opacity="0.85"/><circle cx="447.3" cy="164.4" r="7.5" fill="#3B4C73" opacity="0.85"/><circle cx="463.3" cy="181.4" r="7.5" fill="#3B4C73" opacity="0.85"/><circle cx="477.0" cy="200.3" r="7.5" fill="#3B4C73" opacity="0.85"/><circle cx="488.3" cy="220.8" r="7.5" fill="#3B4C73" opacity="0.85"/><circle cx="496.9" cy="242.5" r="7.5" fill="#3B4C73" opacity="0.85"/><circle cx="114.6" cy="233.3" r="7.5" fill="#0C6E63" opacity="0.9"/><circle cx="122.7" cy="212.1" r="7.5" fill="#0C6E63" opacity="0.9"/><circle cx="132.9" cy="192.0" r="7.5" fill="#0C6E63" opacity="0.9"/><circle cx="145.3" cy="173.0" r="7.5" fill="#0C6E63" opacity="0.9"/><circle cx="159.5" cy="155.5" r="7.5" fill="#0C6E63" opacity="0.9"/><circle cx="175.5" cy="139.5" r="7.5" fill="#0C6E63" opacity="0.9"/><circle cx="193.0" cy="125.3" r="7.5" fill="#0C6E63" opacity="0.9"/><circle cx="212.0" cy="112.9" r="7.5" fill="#0C6E63" opacity="0.9"/><circle cx="232.1" cy="102.7" r="7.5" fill="#0C6E63" opacity="0.9"/><circle cx="253.3" cy="94.6" r="7.5" fill="#0C6E63" opacity="0.9"/><circle cx="275.1" cy="88.7" r="7.5" fill="#0C6E63" opacity="0.9"/><circle cx="297.4" cy="85.2" r="7.5" fill="#9AA4A8" opacity="0.75"/><circle cx="320.0" cy="84.0" r="7.5" fill="#9AA4A8" opacity="0.75"/><circle cx="342.6" cy="85.2" r="7.5" fill="#3B4C73" opacity="0.85"/><circle cx="364.9" cy="88.7" r="7.5" fill="#3B4C73" opacity="0.85"/><circle cx="386.7" cy="94.6" r="7.5" fill="#3B4C73" opacity="0.85"/><circle cx="407.9" cy="102.7" r="7.5" fill="#3B4C73" opacity="0.85"/><circle cx="428.0" cy="112.9" r="7.5" fill="#3B4C73" opacity="0.85"/><circle cx="447.0" cy="125.3" r="7.5" fill="#3B4C73" opacity="0.85"/><circle cx="464.5" cy="139.5" r="7.5" fill="#3B4C73" opacity="0.85"/><circle cx="480.5" cy="155.5" r="7.5" fill="#3B4C73" opacity="0.85"/><circle cx="494.7" cy="173.0" r="7.5" fill="#3B4C73" opacity="0.85"/><circle cx="507.1" cy="192.0" r="7.5" fill="#3B4C73" opacity="0.85"/><circle cx="517.3" cy="212.1" r="7.5" fill="#3B4C73" opacity="0.85"/><circle cx="525.4" cy="233.3" r="7.5" fill="#3B4C73" opacity="0.85"/>
  <rect x="284" y="268" width="72" height="26" rx="5" fill="#14171A"/>
  <rect x="296" y="306" width="48" height="7" rx="3.5" fill="#14171A" opacity=".28"/>
</svg>
